<?xml version="1.0" standalone="no"?>
<!DOCTYPE svg PUBLIC "-//W3C//DTD SVG 20010904//EN"
 "http://www.w3.org/TR/2001/REC-SVG-20010904/DTD/svg10.dtd">
<svg version="1.0" xmlns="http://www.w3.org/2000/svg"
 width="1250.000000pt" height="1250.000000pt" viewBox="0 0 1250.000000 1250.000000"
 preserveAspectRatio="xMidYMid meet">
<metadata>
Created by potrace 1.14, written by Peter Selinger 2001-2017
</metadata>
<g transform="translate(0.000000,1250.000000) scale(0.100000,-0.100000)"
fill="#000000" stroke="none">
<path d="M0 11000 l0 -1500 1500 0 1500 0 0 1500 0 1500 -1500 0 -1500 0 0
-1500z m2500 0 l0 -1000 -1000 0 -1000 0 0 1000 0 1000 1000 0 1000 0 0 -1000z"/>
<path d="M1000 11000 l0 -500 500 0 500 0 0 500 0 500 -500 0 -500 0 0 -500z"/>
<path d="M9500 11000 l0 -1500 1500 0 1500 0 0 1500 0 1500 -1500 0 -1500 0 0
-1500z m2500 0 l0 -1000 -1000 0 -1000 0 0 1000 0 1000 1000 0 1000 0 0 -1000z"/>
<path d="M10500 11000 l0 -500 500 0 500 0 0 500 0 500 -500 0 -500 0 0 -500z"/>
<path d="M3500 7250 l0 -1250 1000 0 1000 0 0 -750 0 -750 -750 0 -750 0 0
250 0 250 -250 0 -250 0 0 -500 0 -500 1250 0 1250 0 0 1250 0 1250 -1000 0
-1000 0 0 750 0 750 750 0 750 0 0 -250 0 -250 250 0 250 0 0 500 0 500 -1250
0 -1250 0 0 -1250z"/>
<path d="M6500 5750 l0 -1750 1250 0 1250 0 0 500 0 500 -250 0 -250 0 0 -250
0 -250 -750 0 -750 0 0 1250 0 1250 750 0 750 0 0 -250 0 -250 250 0 250 0 0
500 0 500 -1250 0 -1250 0 0 -1750z"/>
<path d="M0 1500 l0 -1500 1500 0 1500 0 0 1500 0 1500 -1500 0 -1500 0 0
-1500z m2500 0 l0 -1000 -1000 0 -1000 0 0 1000 0 1000 1000 0 1000 0 0 -1000z"/>
<path d="M1000 1500 l0 -500 500 0 500 0 0 500 0 500 -500 0 -500 0 0 -500z"/>
</g>
</svg>
